<?xml version="1.0" standalone="no"?><!DOCTYPE svg PUBLIC "-//W3C//DTD SVG 1.1//EN" "http://www.w3.org/Graphics/SVG/1.1/DTD/svg11.dtd"><svg t="1697337330565" class="icon" viewBox="0 0 1024 1024" version="1.1" xmlns="http://www.w3.org/2000/svg" p-id="4027" xmlns:xlink="http://www.w3.org/1999/xlink"><path d="M913.659999 311.350619l-200.595195 200.595195c-29.621477 29.621477-71.416658 38.977528-109.238226 28.899002l269.736056-269.627685c22.14386-22.14386 22.14386-58.086993 0-80.230854l-40.169612-40.097365c-22.14386-22.14386-58.086993-22.14386-80.230853 0l-269.627686 269.736057c-10.042403-37.821568-0.722475-79.61675 28.899002-109.238226l200.595195-200.595195c44.28772-44.28772 116.173987-44.28772 160.497831 0l40.133488 40.133488c44.28772 44.251596 44.28772 116.137863 0 160.425583z m-310.917134 110.755424c11.126116 11.017744 11.126116 29.007373 0 40.133489l-140.3769 140.3769c-11.126116 11.126116-29.07962 11.126116-40.133489 0-11.126116-11.017744-11.126116-29.007373 0-40.133488l140.376901-140.376901c11.126116-11.126116 29.07962-11.126116 40.133488 0zM151.448831 832.833104l40.133488 40.133489c22.14386 22.14386 58.086993 22.14386 80.230853 0l269.627686-269.627686c10.042403 37.713197 0.614104 79.508378-29.007373 109.165979l-200.522948 200.595195c-44.28772 44.28772-116.173987 44.28772-160.49783 0L111.279218 872.966593c-44.28772-44.28772-44.28772-116.173987 0-160.497831l200.595196-200.522948c29.621477-29.621477 71.416658-39.049776 109.165978-29.007373l-269.627685 269.627686c-22.107736 22.179984-22.107736 58.123117 0.036124 80.266977z" fill="#231815" p-id="4028"></path></svg>
