<?xml version="1.0" standalone="no"?><!DOCTYPE svg PUBLIC "-//W3C//DTD SVG 1.1//EN" "http://www.w3.org/Graphics/SVG/1.1/DTD/svg11.dtd"><svg class="icon" width="200px" height="200.00px" viewBox="0 0 1024 1024" version="1.1" xmlns="http://www.w3.org/2000/svg"><path fill="#636d7e" d="M487.2 799.2c-183.2 0-332-148.8-332-332C155.2 284.8 304 136 487.2 136s332 148.8 332 332c0 182.4-148.8 331.2-332 331.2z m0-615.2c-156.8 0-284 127.2-284 283.2 0 156.8 127.2 284 284 284S771.2 624 771.2 468C771.2 311.2 644 184 487.2 184z"  /><path fill="#636d7e" d="M844.8 888c-6.4 0-12-2.4-16.8-7.2L667.2 720c-9.6-9.6-9.6-24.8 0-33.6 9.6-9.6 24.8-9.6 33.6 0l160.8 160.8c9.6 9.6 9.6 24.8 0 33.6-4.8 4.8-10.4 7.2-16.8 7.2z"  /></svg>