<?xml version="1.0" standalone="no"?><!DOCTYPE svg PUBLIC "-//W3C//DTD SVG 1.1//EN" "http://www.w3.org/Graphics/SVG/1.1/DTD/svg11.dtd"><svg t="1697280820999" class="icon" viewBox="0 0 1024 1024" version="1.1" xmlns="http://www.w3.org/2000/svg" p-id="4079" xmlns:xlink="http://www.w3.org/1999/xlink"><path d="M601.6 699.733333l-200.533333-110.933333C375.466667 618.666667 341.333333 640 298.666667 640c-72.533333 0-128-55.466667-128-128s55.466667-128 128-128c42.666667 0 81.066667 21.333333 106.666666 55.466667L640 320V298.666667c0-72.533333 55.466667-128 128-128s128 55.466667 128 128-55.466667 128-128 128c-46.933333 0-89.6-25.6-110.933333-64l-234.666667 115.2c4.266667 8.533333 4.266667 21.333333 4.266667 34.133333 0 12.8-4.266667 29.866667-8.533334 42.666667l196.266667 106.666666c25.6-38.4 64-64 110.933333-64 72.533333 0 128 55.466667 128 128s-55.466667 128-128 128-128-55.466667-128-128c0-8.533333 0-17.066667 4.266667-25.6zM298.666667 597.333333c46.933333 0 85.333333-38.4 85.333333-85.333333s-38.4-85.333333-85.333333-85.333333-85.333333 38.4-85.333334 85.333333 38.4 85.333333 85.333334 85.333333z m469.333333-213.333333c46.933333 0 85.333333-38.4 85.333333-85.333333s-38.4-85.333333-85.333333-85.333334-85.333333 38.4-85.333333 85.333334 38.4 85.333333 85.333333 85.333333z m-42.666667 426.666667c46.933333 0 85.333333-38.4 85.333334-85.333334s-38.4-85.333333-85.333334-85.333333-85.333333 38.4-85.333333 85.333333 38.4 85.333333 85.333333 85.333334z" fill="#333333" p-id="4080"></path></svg>
