<?xml version="1.0" encoding="UTF-8"?>
<svg width="110px" height="89px" viewBox="0 0 110 89" version="1.1" xmlns="http://www.w3.org/2000/svg" xmlns:xlink="http://www.w3.org/1999/xlink">
    <title>云存储 (1)备份 5</title>
    <g id="页面-1" stroke="none" stroke-width="1" fill="none" fill-rule="evenodd">
        <g id="云存储-(1)备份-5" fill-rule="nonzero">
            <path d="M35.3632812,38.6381431 C35.3664126,40.7203385 36.1957519,42.7159913 37.668823,44.1860064 C39.1418942,45.6560214 41.1380082,46.4799603 43.2179687,46.4765351 L55.2148438,46.4765351 L55.2148438,65.5106329 L15.7158203,65.5106329 C11.3937649,65.5141328 7.8861108,69.0116208 7.86542969,73.3382712 C7.86542969,77.6634204 11.4006836,81.1712863 15.7158203,81.1712863 L55.2148438,81.1712863 L55.2148438,88.9989246 L15.7158203,88.9989246 C7.03398438,88.9989246 0,82.0090017 0,73.3479495 C0,71.6639158 0.331933594,70.0497813 0.836816406,68.5087721 L14.1796875,8.80837824 C14.8229278,3.90363522 18.909422,0.180476003 23.8476562,0 L55.2148438,0 L55.2148438,19.0609821 L55.0107422,19.0609821 C48.4923828,19.0609821 43.2179688,24.3195549 43.2179688,30.805128 C38.8887362,30.7979934 35.3727641,34.3042643 35.3632812,38.6381431 Z" id="路径" fill="#06A7FF"></path>
            <path d="M94.2852539,73.3393466 C94.2849808,74.3815303 93.8699003,75.3806507 93.1318433,76.1156661 C92.3937862,76.8506815 91.3935917,77.2610036 90.3525391,77.2558541 C90.1879674,77.2655322 90.0229701,77.2655322 89.8583984,77.2558541 C87.7793673,76.9849805 86.2810586,75.1247517 86.4574301,73.033374 C86.6338017,70.9419962 88.4224397,69.3595605 90.5174085,69.4414483 C92.6123773,69.5233361 94.2723151,71.2405691 94.2852539,73.3393466 L94.2852539,73.3393466 Z" id="路径" fill="#FFFFFF"></path>
            <path d="M94.2852539,73.3393466 C94.2849808,74.3815303 93.8699003,75.3806507 93.1318433,76.1156661 C92.3937862,76.8506815 91.3935917,77.2610036 90.3525391,77.2558541 C90.1879674,77.2655322 90.0229701,77.2655322 89.8583984,77.2558541 C87.7793673,76.9849805 86.2810586,75.1247517 86.4574301,73.033374 C86.6338017,70.9419962 88.4224397,69.3595605 90.5174085,69.4414483 C92.6123773,69.5233361 94.2723151,71.2405691 94.2852539,73.3393466 L94.2852539,73.3393466 Z" id="路径" fill="#606060"></path>
            <path d="M89.85625,77.2558541 C87.5945476,77.1220956 85.8488539,75.2125708 85.9156905,72.9454783 C85.9825271,70.6783857 87.8376746,68.8752462 90.1033203,68.8752462 C92.3689661,68.8752462 94.2241135,70.6783857 94.2909501,72.9454783 C94.3577867,75.2125708 92.612093,77.1220956 90.3503906,77.2558541 C90.1858189,77.2655322 90.0208217,77.2655322 89.85625,77.2558541 L89.85625,77.2558541 Z" id="路径" fill="#06A7FF"></path>
            <path d="M110,73.3490249 C110,81.9993234 102.956348,89 94.2852539,89 L55.2148438,89 L55.2148438,81.170211 L94.2852539,81.170211 C98.6154297,81.170211 102.150684,77.662345 102.139941,73.3371958 C102.129199,69.0120466 98.6154297,65.5095575 94.2852539,65.5095575 L55.2148438,65.5095575 L55.2148438,46.4754598 L66.7981445,46.4754598 C67.0838867,46.4851381 67.3642578,46.4851381 67.6575195,46.4754598 C71.9418908,46.1881006 75.1986158,42.5047493 74.9633122,38.2126186 C74.7280087,33.920488 71.0881976,30.616032 66.7981445,30.7997511 C66.7981445,24.3916048 61.6418945,19.167444 55.2148438,19.0599067 L55.2148438,0 L86.1523438,0 C91.0059805,0.178861348 95.0467868,3.78739094 95.7762695,8.59437906 L109.140625,68.5033953 C109.637988,70.0411783 109.990332,71.6445591 110,73.3490249 Z" id="路径" fill="#20D1FF"></path>
        </g>
    </g>
</svg>