<?xml version="1.0" standalone="no"?><!DOCTYPE svg PUBLIC "-//W3C//DTD SVG 1.1//EN" "http://www.w3.org/Graphics/SVG/1.1/DTD/svg11.dtd"><svg t="1700284121153" class="icon" viewBox="0 0 1024 1024" version="1.1" xmlns="http://www.w3.org/2000/svg" p-id="4066" xmlns:xlink="http://www.w3.org/1999/xlink"><path d="M102.4 102.4h204.8V0H102.4a102.4 102.4 0 0 0-102.4 102.4v819.2a102.4 102.4 0 0 0 102.4 102.4h204.8v-102.4H102.4zM921.6 0h-204.8v102.4h204.8v819.2h-204.8v102.4h204.8a102.4 102.4 0 0 0 102.4-102.4V102.4a102.4 102.4 0 0 0-102.4-102.4z" p-id="4067" fill="#636d7e"></path><path d="M768 307.2a51.2 51.2 0 0 0-51.2-51.2H307.2a51.2 51.2 0 0 0 0 102.4h153.6v409.6a51.2 51.2 0 0 0 102.4 0V358.4h153.6a51.2 51.2 0 0 0 51.2-51.2z" p-id="4068" fill="#636d7e"></path></svg>
